<svg width="41" height="41" viewBox="0 0 41 41" fill="none" xmlns="http://www.w3.org/2000/svg">
<g clip-path="url(#clip0_65_185)">
<path d="M20.5 0C16.4455 0 12.482 1.2023 9.11082 3.45487C5.73961 5.70744 3.11208 8.90911 1.56048 12.655C0.00888236 16.4009 -0.397086 20.5227 0.393911 24.4994C1.18491 28.476 3.13734 32.1287 6.00432 34.9957C8.8713 37.8627 12.524 39.8151 16.5007 40.6061C20.4773 41.3971 24.5991 40.9911 28.345 39.4395C32.0909 37.8879 35.2926 35.2604 37.5451 31.8892C39.7977 28.518 41 24.5545 41 20.5C40.9941 15.0649 38.8324 9.85403 34.9892 6.0108C31.146 2.16758 25.9351 0.00587851 20.5 0ZM35.272 11.9583H29.7694C28.5377 9.10368 26.9158 6.43373 24.9502 4.02483C29.3005 5.20858 33.009 8.05901 35.272 11.9583ZM28.1875 20.5C28.1735 22.2393 27.8994 23.9668 27.3743 25.625H13.6257C13.1006 23.9668 12.8265 22.2393 12.8125 20.5C12.8265 18.7607 13.1006 17.0332 13.6257 15.375H27.3743C27.8994 17.0332 28.1735 18.7607 28.1875 20.5ZM14.9958 29.0417H26.0043C24.5543 31.9044 22.7006 34.5439 20.5 36.8795C18.2986 34.5446 16.4448 31.9049 14.9958 29.0417ZM14.9958 11.9583C16.4457 9.09563 18.2994 6.45606 20.5 4.1205C22.7014 6.4554 24.5552 9.09509 26.0043 11.9583H14.9958ZM16.0583 4.02483C14.0898 6.43322 12.465 9.10319 11.2306 11.9583H5.72805C7.99305 8.05724 11.7049 5.20658 16.0583 4.02483ZM4.20422 15.375H10.0792C9.6363 17.0477 9.40671 18.7697 9.39584 20.5C9.40671 22.2303 9.6363 23.9523 10.0792 25.625H4.20422C3.15417 22.289 3.15417 18.711 4.20422 15.375ZM5.72805 29.0417H11.2306C12.465 31.8968 14.0898 34.5668 16.0583 36.9752C11.7049 35.7934 7.99305 32.9428 5.72805 29.0417ZM24.9502 36.9752C26.9158 34.5663 28.5377 31.8963 29.7694 29.0417H35.272C33.009 32.941 29.3005 35.7914 24.9502 36.9752ZM36.7958 25.625H30.9208C31.3637 23.9523 31.5933 22.2303 31.6042 20.5C31.5933 18.7697 31.3637 17.0477 30.9208 15.375H36.7924C37.8424 18.711 37.8424 22.289 36.7924 25.625H36.7958Z" fill="white"/>
</g>
<defs>
<clipPath id="clip0_65_185">
<rect width="41" height="41" fill="white"/>
</clipPath>
</defs>
</svg>
