<svg width="41" height="41" viewBox="0 0 41 41" fill="none" xmlns="http://www.w3.org/2000/svg">
<g clip-path="url(#clip0_65_174)">
<path d="M20.5 3.69342C25.9735 3.69342 26.6227 3.71392 28.7837 3.813C31.0182 3.9155 33.3193 4.42458 34.9474 6.05263C36.5908 7.69604 37.0845 9.97496 37.187 12.2163C37.2861 14.3773 37.3066 15.0265 37.3066 20.5C37.3066 25.9735 37.2861 26.6227 37.187 28.7837C37.0862 31.0063 36.5652 33.3296 34.9474 34.9474C33.304 36.5908 31.0268 37.0845 28.7837 37.187C26.6227 37.2861 25.9735 37.3066 20.5 37.3066C15.0265 37.3066 14.3773 37.2861 12.2163 37.187C10.0108 37.0862 7.65675 36.5532 6.05263 34.9474C4.41775 33.3125 3.9155 31.0114 3.813 28.7837C3.71392 26.6227 3.69342 25.9735 3.69342 20.5C3.69342 15.0265 3.71392 14.3773 3.813 12.2163C3.91379 10.0023 4.43996 7.66529 6.05263 6.05263C7.69263 4.41263 9.98008 3.9155 12.2163 3.813C14.3773 3.71392 15.0265 3.69342 20.5 3.69342ZM20.5 0C14.9325 0 14.2338 0.0239167 12.0472 0.123C8.87821 0.268208 5.73146 1.14971 3.44058 3.44058C1.14117 5.74 0.268208 8.87992 0.123 12.0472C0.0239167 14.2338 0 14.9325 0 20.5C0 26.0675 0.0239167 26.7662 0.123 28.9528C0.268208 32.1184 1.15312 35.2737 3.44058 37.5594C5.73829 39.8571 8.88333 40.7318 12.0472 40.877C14.2338 40.9761 14.9325 41 20.5 41C26.0675 41 26.7662 40.9761 28.9528 40.877C32.1201 40.7318 35.2703 39.8486 37.5594 37.5594C39.8605 35.2583 40.7318 32.1201 40.877 28.9528C40.9761 26.7662 41 26.0675 41 20.5C41 14.9325 40.9761 14.2338 40.877 12.0472C40.7318 8.87821 39.8486 5.72975 37.5594 3.44058C35.2651 1.14629 32.1115 0.2665 28.9528 0.123C26.7662 0.0239167 26.0675 0 20.5 0Z" fill="white"/>
<path d="M20.4999 9.97314C14.6864 9.97314 9.97314 14.6864 9.97314 20.4999C9.97314 26.3134 14.6864 31.0266 20.4999 31.0266C26.3134 31.0266 31.0266 26.3134 31.0266 20.4999C31.0266 14.6864 26.3134 9.97314 20.4999 9.97314ZM20.4999 27.3332C16.7262 27.3332 13.6666 24.2736 13.6666 20.4999C13.6666 16.7262 16.7262 13.6666 20.4999 13.6666C24.2736 13.6666 27.3332 16.7262 27.3332 20.4999C27.3332 24.2736 24.2736 27.3332 20.4999 27.3332Z" fill="white"/>
<path d="M31.4434 12.0164C32.802 12.0164 33.9034 10.9151 33.9034 9.55644C33.9034 8.19782 32.802 7.09644 31.4434 7.09644C30.0848 7.09644 28.9834 8.19782 28.9834 9.55644C28.9834 10.9151 30.0848 12.0164 31.4434 12.0164Z" fill="white"/>
</g>
<defs>
<clipPath id="clip0_65_174">
<rect width="41" height="41" fill="white"/>
</clipPath>
</defs>
</svg>
