<svg width="22" height="22" viewBox="0 0 22 22" fill="none" xmlns="http://www.w3.org/2000/svg">
<g clip-path="url(#clip0_47_968)">
<path d="M14.2087 22H7.79199C5.51774 22 3.66699 20.1493 3.66699 17.875V4.125C3.66699 1.85075 5.51774 0 7.79199 0H14.2087C16.4829 0 18.3337 1.85075 18.3337 4.125V17.875C18.3337 20.1493 16.4829 22 14.2087 22ZM7.79199 0.916667C6.02283 0.916667 4.58366 2.35583 4.58366 4.125V17.875C4.58366 19.6442 6.02283 21.0833 7.79199 21.0833H14.2087C15.9778 21.0833 17.417 19.6442 17.417 17.875V4.125C17.417 2.35583 15.9778 0.916667 14.2087 0.916667H7.79199ZM12.8337 18.7917C12.8337 18.5387 12.6283 18.3333 12.3753 18.3333H9.62533C9.37233 18.3333 9.16699 18.5387 9.16699 18.7917C9.16699 19.0447 9.37233 19.25 9.62533 19.25H12.3753C12.6283 19.25 12.8337 19.0447 12.8337 18.7917Z" fill="white"/>
</g>
<defs>
<clipPath id="clip0_47_968">
<rect width="22" height="22" fill="white"/>
</clipPath>
</defs>
</svg>
