<svg width="41" height="41" viewBox="0 0 41 41" fill="none" xmlns="http://www.w3.org/2000/svg">
<g clip-path="url(#clip0_65_171)">
<path d="M40.8531 29.843C40.5678 29.0674 40.0263 28.6523 39.4078 28.3089C39.2917 28.2406 39.1841 28.1859 39.0935 28.1432C38.909 28.0475 38.7211 27.9553 38.5332 27.8596C36.6079 26.838 35.1028 25.55 34.0591 24.0227C33.7635 23.5922 33.5056 23.1378 33.2903 22.6612C33.2015 22.4066 33.2066 22.2631 33.2698 22.1299C33.333 22.0274 33.4167 21.9402 33.5158 21.8736C33.8472 21.655 34.1889 21.4329 34.4195 21.2825C34.8312 21.0143 35.1592 20.8042 35.3693 20.6539C36.1603 20.1004 36.7138 19.5127 37.0589 18.8567C37.5475 17.9393 37.6107 16.8545 37.2366 15.8842C36.7121 14.5056 35.4103 13.6497 33.8336 13.6497C33.5004 13.6497 33.169 13.6856 32.8444 13.7539C32.7573 13.7727 32.6702 13.7932 32.5865 13.8154C32.6001 12.8724 32.5796 11.8782 32.4959 10.8976C32.1987 7.45358 30.9926 5.64958 29.7353 4.20945C28.9306 3.30745 27.9825 2.54383 26.9285 1.95103C25.022 0.862826 22.8575 0.309326 20.5 0.309326C18.1425 0.309326 15.99 0.862826 14.0801 1.95103C13.0243 2.54553 12.0728 3.31087 11.2682 4.21458C10.0108 5.65299 8.80476 7.46212 8.50751 10.9027C8.4238 11.8816 8.4033 12.8827 8.41697 13.8188C8.33155 13.7966 8.24614 13.7778 8.16072 13.7573C7.83443 13.6873 7.50301 13.6531 7.16989 13.6531C5.59139 13.6531 4.28793 14.509 3.76518 15.8876C3.38764 16.858 3.45084 17.9445 3.93772 18.8635C4.28451 19.5212 4.8363 20.1072 5.62897 20.6607C5.83909 20.8076 6.16709 21.0195 6.5788 21.2894C6.80089 21.4346 7.12718 21.6464 7.44664 21.8565C7.55939 21.9283 7.65334 22.024 7.72509 22.1367C7.79172 22.2751 7.79343 22.422 7.69435 22.6936C7.48251 23.16 7.22968 23.6059 6.93926 24.0261C5.91939 25.5226 4.45876 26.7868 2.59497 27.7998C1.60755 28.3243 0.580844 28.6728 0.146928 29.8515C-0.181072 30.7416 0.0324694 31.7529 0.864428 32.6054C1.16851 32.9231 1.52214 33.1913 1.91164 33.398C2.72139 33.8422 3.58239 34.1873 4.47414 34.423C4.65864 34.4709 4.83289 34.5494 4.99176 34.6554C5.29414 34.9202 5.25143 35.3199 5.65459 35.9042C5.85789 36.2065 6.11414 36.4679 6.41309 36.6746C7.25872 37.2589 8.21026 37.2947 9.21818 37.334C10.1287 37.3682 11.1606 37.4092 12.3393 37.797C12.8279 37.9576 13.3353 38.2702 13.9229 38.6358C15.334 39.5036 17.2661 40.6892 20.4983 40.6892C23.7305 40.6892 25.6763 39.4968 27.0976 38.6255C27.6818 38.2668 28.1858 37.9576 28.6607 37.8004C29.8395 37.4109 30.8713 37.3716 31.7818 37.3375C32.7898 37.2999 33.7413 37.2623 34.5869 36.678C34.9406 36.432 35.2361 36.1092 35.4496 35.735C35.7401 35.2413 35.7315 34.8962 36.0048 34.6554C36.1535 34.5546 36.3175 34.4794 36.4917 34.4333C37.3971 34.1958 38.2701 33.849 39.0901 33.398C39.5035 33.1777 39.8759 32.8855 40.1903 32.537L40.2005 32.5234C40.9761 31.6931 41.1726 30.7108 40.8531 29.843ZM38.5913 30.8287C38.54 30.9876 38.3641 31.1738 37.9797 31.3873C36.2269 32.3559 35.0618 32.2517 34.1564 32.836C33.8199 33.053 33.7174 33.3792 33.6627 33.7107C33.6388 33.8473 33.6251 33.9857 33.6046 34.1172C33.5619 34.3923 33.497 34.6383 33.2835 34.7852C32.5967 35.2601 30.5655 34.7527 27.9415 35.6189C25.7771 36.3347 24.3967 38.3915 20.5051 38.3915C16.6118 38.3915 15.264 36.3381 13.0636 35.6137C10.4448 34.7476 8.41014 35.255 7.71997 34.7818C7.16135 34.3974 7.61576 33.328 6.84701 32.8326C5.93989 32.25 4.7748 32.3525 3.02376 31.3907C2.46001 31.0798 2.34384 30.8287 2.41218 30.634C2.41218 30.6288 2.41389 30.6254 2.4173 30.6203C2.49076 30.4341 2.73164 30.2991 2.91272 30.212C5.88864 28.7719 7.69264 26.9627 8.7723 25.4133C8.98926 25.1024 9.17547 24.8034 9.33776 24.5181C10.0928 23.189 10.2978 22.1948 10.3183 22.041C10.373 21.6157 10.4328 21.2791 9.96301 20.8469C9.5103 20.4267 7.49789 19.1813 6.93926 18.7918C6.5583 18.5253 6.16368 18.2058 5.95184 17.7805C5.49059 16.8562 6.21322 15.956 7.16476 15.956C7.33389 15.956 7.50301 15.9765 7.66872 16.0123C8.68176 16.2327 9.66747 16.7401 10.2363 16.8767C10.6122 16.9673 10.8582 16.7965 10.836 16.4052C10.7711 15.2948 10.6139 13.1338 10.7881 11.1128C10.8736 10.1203 11.0734 9.11237 11.439 8.17278C11.7909 7.26908 12.353 6.46274 12.9868 5.7367C13.4993 5.15074 15.8995 2.61387 20.4949 2.61387C24.0824 2.61387 26.3374 4.15649 27.3966 5.10974C29.0861 6.66262 30.0154 8.83391 30.2068 11.1009C30.381 13.1218 30.2307 15.2846 30.1589 16.3933C30.135 16.7708 30.3998 16.957 30.7586 16.8665C31.3291 16.7281 32.3131 16.2207 33.3279 16.0004C34.0761 15.8381 34.944 16.067 35.149 16.8904C35.3181 17.596 34.9081 18.187 34.0591 18.7798C33.5004 19.1693 31.488 20.413 31.0353 20.8332C30.5655 21.2672 30.627 21.602 30.6817 22.0291C30.7073 22.2272 31.0285 23.775 32.3951 25.6388L32.3986 25.6422C32.4549 25.7191 32.513 25.7977 32.5745 25.8762C32.882 26.276 33.2391 26.6894 33.6508 27.1045C34.7168 28.1774 36.1552 29.2673 38.0873 30.2C38.2462 30.2769 38.429 30.3726 38.5332 30.5195C38.5964 30.6066 38.6288 30.7228 38.5913 30.8287Z" fill="white"/>
</g>
<defs>
<clipPath id="clip0_65_171">
<rect width="41" height="41" fill="white"/>
</clipPath>
</defs>
</svg>
