<svg width="55" height="55" viewBox="0 0 55 55" fill="none" xmlns="http://www.w3.org/2000/svg">
<path d="M3.04087 28.4167L11.1992 34.375L8.10087 43.9702C7.60017 45.4584 7.59383 47.0686 8.08279 48.5607C8.57175 50.0527 9.52983 51.3468 10.8142 52.25C12.0766 53.1822 13.6064 53.6816 15.1756 53.6738C16.7448 53.6659 18.2696 53.1513 19.5225 52.2065L27.4998 46.3352L35.4794 52.1996C36.7395 53.1265 38.261 53.6299 39.8253 53.6375C41.3895 53.6452 42.9159 53.1566 44.1849 52.242C45.454 51.3275 46.4003 50.0341 46.888 48.5478C47.3756 47.0615 47.3794 45.4588 46.8988 43.9702L43.8005 34.375L51.9588 28.4167C53.2172 27.4966 54.1527 26.2024 54.6317 24.7188C55.1106 23.2353 55.1085 21.6384 54.6256 20.1561C54.1427 18.6739 53.2037 17.3822 51.9428 16.4654C50.6819 15.5487 49.1635 15.0539 47.6046 15.0517H37.5832L34.5421 5.57337C34.0639 4.0814 33.1242 2.77986 31.8585 1.85644C30.5928 0.933013 29.0666 0.435425 27.4998 0.435425C25.9331 0.435425 24.4068 0.933013 23.1412 1.85644C21.8755 2.77986 20.9358 4.0814 20.4575 5.57337L17.4165 15.0517H7.40421C5.84529 15.0539 4.32694 15.5487 3.06604 16.4654C1.80513 17.3822 0.866175 18.6739 0.383277 20.1561C-0.0996219 21.6384 -0.101759 23.2353 0.37717 24.7188C0.856099 26.2024 1.7916 27.4966 3.05004 28.4167H3.04087Z" fill="#DC7B2E"/>
</svg>
