<svg width="40" height="41" viewBox="0 0 40 41" fill="none" xmlns="http://www.w3.org/2000/svg">
<g clip-path="url(#clip0_65_179)">
<path d="M37.4415 16.8544C33.8765 16.8544 30.5715 15.6859 27.8749 13.7008V28.0252C27.8749 35.1797 22.1965 40.9983 15.2182 40.9983C12.5215 40.9983 10.0199 40.127 7.96486 38.6476C4.70152 36.2987 2.56152 32.4139 2.56152 28.0252C2.56152 20.8707 8.23986 15.0504 15.2199 15.0504C15.7999 15.0504 16.3665 15.1 16.9249 15.1768V16.8459V22.3723C16.3849 22.1998 15.8149 22.099 15.2199 22.099C12.0332 22.099 9.43986 24.7572 9.43986 28.0252C9.43986 30.3007 10.6999 32.2773 12.5399 33.2698C13.3415 33.702 14.2532 33.9497 15.2215 33.9497C18.3349 33.9497 20.8749 31.4111 20.9915 28.2473L20.9965 0H27.8732C27.8732 0.611583 27.9315 1.20779 28.0349 1.78863C28.5199 4.47413 30.0749 6.77867 32.2299 8.21879C33.7299 9.22158 35.5199 9.80754 37.4399 9.80754L37.4415 16.8544Z" fill="white"/>
</g>
<defs>
<clipPath id="clip0_65_179">
<rect width="40" height="41" fill="white"/>
</clipPath>
</defs>
</svg>
