<svg width="41" height="41" viewBox="0 0 41 41" fill="none" xmlns="http://www.w3.org/2000/svg">
<g clip-path="url(#clip0_65_181)">
<path fill-rule="evenodd" clip-rule="evenodd" d="M34.9574 5.95867C31.1205 2.11833 26.0194 0.00170833 20.5852 0C9.38708 0 0.273126 9.11225 0.268001 20.3155C0.266293 23.8962 1.20246 27.3914 2.98083 30.4732L0.097168 41L10.8665 38.1744C13.8339 39.7939 17.1754 40.6464 20.575 40.6481H20.5835C31.7799 40.6481 40.8956 31.5341 40.9007 20.3309C40.9041 14.9035 38.7926 9.79729 34.9574 5.95867ZM20.5852 37.216H20.5784C17.5478 37.216 14.577 36.4012 11.9838 34.862L11.367 34.4964L4.97617 36.1722L6.68279 29.9402L6.28133 29.3013C4.59009 26.6124 3.69833 23.505 3.70004 20.3155C3.70346 11.0051 11.2799 3.43033 20.5938 3.43033C25.1038 3.43033 29.3438 5.18992 32.5316 8.38108C35.7193 11.574 37.4738 15.8158 37.4721 20.3275C37.467 29.6413 29.8922 37.216 20.5852 37.216ZM29.8478 24.5693C29.3404 24.3147 26.8445 23.0864 26.3782 22.9173C25.9135 22.7482 25.5753 22.6628 25.2353 23.1701C24.8953 23.6775 23.925 24.8221 23.6278 25.162C23.3322 25.5003 23.035 25.543 22.5276 25.2885C22.0202 25.0339 20.3836 24.4992 18.4447 22.7687C16.9362 21.4225 15.9163 19.7603 15.6208 19.2512C15.3253 18.7421 15.59 18.4688 15.8429 18.216C16.0718 17.9888 16.3503 17.6232 16.6048 17.3259C16.861 17.0321 16.9448 16.8203 17.1156 16.4803C17.2847 16.142 17.201 15.8448 17.0729 15.5903C16.9448 15.3374 15.93 12.8381 15.508 11.8217C15.0963 10.8308 14.6778 10.9658 14.3652 10.9504C14.0696 10.935 13.7314 10.9333 13.3914 10.9333C13.0532 10.9333 12.5031 11.0597 12.0384 11.5688C11.5738 12.0779 10.2618 13.3062 10.2618 15.8038C10.2618 18.3031 12.0811 20.717 12.334 21.0552C12.5868 21.3935 15.9129 26.5219 21.0055 28.7205C22.2167 29.2433 23.1631 29.5559 23.8994 29.7899C25.1157 30.176 26.2227 30.1213 27.0974 29.9915C28.0728 29.8463 30.1006 28.7632 30.5243 27.5776C30.948 26.392 30.948 25.3739 30.8198 25.1637C30.6934 24.9502 30.3552 24.8238 29.8478 24.5693Z" fill="white"/>
</g>
<defs>
<clipPath id="clip0_65_181">
<rect width="41" height="41" fill="white"/>
</clipPath>
</defs>
</svg>
